<?xml version="1.0" encoding="UTF-8"?>
<svg xmlns="http://www.w3.org/2000/svg" xmlns:xlink="http://www.w3.org/1999/xlink" width="40pt" height="40pt" viewBox="0 0 40 40" version="1.1">
<g id="surface1">
<path style=" stroke:none;fill-rule:nonzero;fill:rgb(100%,56.078431%,0%);fill-opacity:1;" d="M 17.753906 29.945312 C 16.339844 29.945312 14.980469 29.363281 14.003906 28.34375 C 13.027344 27.320312 12.511719 25.941406 12.574219 24.527344 C 12.699219 21.730469 15.113281 19.578125 17.914062 19.578125 L 20.269531 19.578125 C 25.132812 19.578125 29.363281 16.253906 30.511719 11.527344 L 17.636719 11.527344 C 11.605469 11.527344 6.71875 16.417969 6.71875 22.445312 C 6.71875 28.472656 11.605469 33.363281 17.636719 33.363281 L 28.558594 33.363281 C 28.558594 31.472656 27.027344 29.945312 25.136719 29.945312 Z M 17.753906 29.945312 "/>
<path style=" stroke:none;fill-rule:nonzero;fill:rgb(100%,38.823529%,9.803922%);fill-opacity:1;" d="M 10.105469 18.542969 C 8.957031 24.175781 12.339844 26.839844 13.511719 27.738281 L 13.515625 27.738281 C 12.855469 26.800781 12.523438 25.671875 12.574219 24.527344 C 12.699219 21.730469 15.113281 19.574219 17.917969 19.574219 L 20.269531 19.574219 C 25.132812 19.574219 29.363281 16.25 30.511719 11.527344 L 17.636719 11.527344 C 17.636719 11.527344 11.160156 13.367188 10.105469 18.542969 Z M 10.105469 18.542969 "/>
<path style=" stroke:none;fill-rule:nonzero;fill:rgb(100%,38.823529%,9.803922%);fill-opacity:1;" d="M 7 19.980469 L 12.972656 22.804688 C 13.832031 20.839844 15.777344 19.574219 17.925781 19.578125 L 13.867188 12.195312 C 10.410156 13.472656 7.832031 16.394531 7 19.980469 Z M 7 19.980469 "/>
<path style=" stroke:none;fill-rule:nonzero;fill:rgb(100%,38.823529%,9.803922%);fill-opacity:1;" d="M 17.636719 33.363281 L 19.105469 33.363281 L 19.105469 29.945312 L 17.753906 29.945312 C 16.066406 29.945312 14.480469 29.121094 13.511719 27.738281 L 10.847656 30.996094 C 12.777344 32.53125 15.171875 33.367188 17.636719 33.363281 Z M 17.636719 33.363281 "/>
<path style=" stroke:none;fill-rule:nonzero;fill:rgb(100%,95.686275%,95.686275%);fill-opacity:1;" d="M 23.585938 12.859375 C 23.148438 12.859375 22.792969 13.214844 22.792969 13.652344 C 22.792969 14.089844 23.148438 14.449219 23.585938 14.449219 C 24.027344 14.449219 24.378906 14.089844 24.378906 13.652344 C 24.378906 13.214844 24.027344 12.859375 23.585938 12.859375 Z M 23.585938 12.859375 "/>
<path style=" stroke:none;fill-rule:nonzero;fill:rgb(93.72549%,21.960784%,0.392157%);fill-opacity:1;" d="M 17.925781 19.578125 L 14.335938 13.050781 C 12.566406 14.15625 10.636719 15.921875 10.105469 18.542969 C 9.910156 19.464844 9.839844 20.410156 9.890625 21.347656 L 12.972656 22.804688 C 13.832031 20.839844 15.777344 19.574219 17.925781 19.578125 Z M 17.925781 19.578125 "/>
<path style=" stroke:none;fill-rule:nonzero;fill:rgb(38.823529%,0%,0%);fill-opacity:1;" d="M 9.386719 15.839844 C 9.542969 15.839844 9.699219 15.769531 9.800781 15.652344 C 9.851562 15.589844 9.902344 15.535156 9.957031 15.472656 C 10.089844 15.332031 10.136719 15.125 10.078125 14.9375 C 10.019531 14.75 9.863281 14.605469 9.671875 14.566406 C 9.480469 14.527344 9.277344 14.589844 9.148438 14.738281 C 9.089844 14.800781 9.03125 14.867188 8.972656 14.933594 C 8.832031 15.097656 8.800781 15.324219 8.886719 15.519531 C 8.976562 15.714844 9.171875 15.839844 9.386719 15.839844 Z M 9.386719 15.839844 "/>
<path style=" stroke:none;fill-rule:nonzero;fill:rgb(38.823529%,0%,0%);fill-opacity:1;" d="M 14.980469 5.332031 L 15.394531 5.332031 C 15.695312 5.332031 15.941406 5.085938 15.941406 4.785156 C 15.941406 4.480469 15.695312 4.238281 15.394531 4.238281 L 14.980469 4.238281 C 14.675781 4.238281 14.433594 4.480469 14.433594 4.785156 C 14.433594 5.085938 14.675781 5.332031 14.980469 5.332031 Z M 14.980469 5.332031 "/>
<path style=" stroke:none;fill-rule:nonzero;fill:rgb(38.823529%,0%,0%);fill-opacity:1;" d="M 24.378906 13.652344 C 24.378906 13.214844 24.027344 12.859375 23.585938 12.859375 C 23.148438 12.859375 22.792969 13.214844 22.792969 13.652344 C 22.792969 14.089844 23.148438 14.449219 23.585938 14.449219 C 24.027344 14.449219 24.378906 14.089844 24.378906 13.652344 Z M 24.378906 13.652344 "/>
<path style=" stroke:none;fill-rule:nonzero;fill:rgb(38.823529%,0%,0%);fill-opacity:1;" d="M 31.429688 32.816406 L 29.058594 32.816406 C 28.785156 30.859375 27.113281 29.402344 25.136719 29.398438 L 17.753906 29.398438 C 16.488281 29.398438 15.277344 28.878906 14.402344 27.964844 C 13.527344 27.050781 13.0625 25.816406 13.121094 24.550781 C 13.222656 22.285156 15.082031 20.414062 17.378906 20.160156 L 17.378906 22.097656 C 17.378906 22.394531 17.621094 22.644531 17.925781 22.644531 C 18.226562 22.644531 18.472656 22.394531 18.472656 22.097656 L 18.472656 20.125 L 20.269531 20.125 C 20.46875 20.125 20.667969 20.117188 20.863281 20.105469 L 21.246094 21.917969 C 21.308594 22.214844 21.597656 22.402344 21.894531 22.339844 C 22.191406 22.277344 22.378906 21.988281 22.316406 21.691406 L 21.957031 19.996094 C 22.707031 19.878906 23.441406 19.691406 24.15625 19.425781 L 25.058594 21.390625 C 25.136719 21.574219 25.308594 21.695312 25.503906 21.714844 C 25.703125 21.734375 25.894531 21.644531 26.007812 21.484375 C 26.121094 21.324219 26.136719 21.113281 26.050781 20.933594 L 25.160156 18.996094 C 28.117188 17.542969 30.269531 14.855469 31.042969 11.65625 C 31.082031 11.496094 31.042969 11.320312 30.941406 11.191406 C 30.839844 11.058594 30.679688 10.980469 30.511719 10.980469 L 29.105469 10.980469 C 28.816406 7.179688 25.652344 4.242188 21.839844 4.238281 L 17.265625 4.238281 C 16.964844 4.238281 16.71875 4.480469 16.71875 4.785156 C 16.71875 5.085938 16.964844 5.332031 17.265625 5.332031 L 21.839844 5.332031 C 25.046875 5.332031 27.722656 7.785156 28.007812 10.980469 L 26.578125 10.980469 C 26.300781 8.628906 24.308594 6.855469 21.941406 6.851562 L 12.464844 6.851562 C 12.160156 6.851562 11.917969 7.097656 11.917969 7.398438 C 11.917969 7.699219 12.160156 7.945312 12.464844 7.945312 L 21.941406 7.945312 C 23.703125 7.949219 25.203125 9.238281 25.472656 10.980469 L 17.636719 10.980469 C 15.191406 10.972656 12.804688 11.753906 10.835938 13.214844 C 10.59375 13.394531 10.542969 13.734375 10.722656 13.980469 C 10.902344 14.222656 11.242188 14.273438 11.488281 14.09375 C 12.144531 13.605469 12.863281 13.199219 13.617188 12.878906 L 16.441406 18.015625 C 16.589844 18.28125 16.917969 18.378906 17.183594 18.230469 C 17.449219 18.085938 17.542969 17.753906 17.402344 17.488281 L 14.664062 12.511719 C 15.628906 12.222656 16.628906 12.074219 17.636719 12.074219 L 29.792969 12.074219 C 28.917969 14.828125 26.894531 17.066406 24.238281 18.210938 C 24.230469 18.214844 24.214844 18.21875 24.207031 18.222656 C 24.191406 18.230469 24.179688 18.238281 24.167969 18.246094 C 22.933594 18.765625 21.609375 19.035156 20.269531 19.03125 L 17.914062 19.03125 C 15.753906 19.015625 13.753906 20.183594 12.707031 22.074219 L 9.222656 20.425781 C 8.949219 20.300781 8.621094 20.417969 8.496094 20.6875 C 8.363281 20.960938 8.480469 21.285156 8.753906 21.417969 L 12.28125 23.082031 C 12.136719 23.542969 12.050781 24.019531 12.027344 24.503906 C 11.972656 25.625 12.253906 26.738281 12.835938 27.699219 L 10.777344 30.214844 C 7.050781 26.933594 6.175781 21.464844 8.699219 17.179688 C 8.808594 17.011719 8.816406 16.796875 8.71875 16.621094 C 8.621094 16.445312 8.4375 16.339844 8.238281 16.339844 C 8.035156 16.339844 7.851562 16.449219 7.757812 16.625 C 4.863281 21.535156 6.019531 27.828125 10.472656 31.386719 C 10.480469 31.398438 10.492188 31.410156 10.503906 31.417969 C 10.515625 31.429688 10.523438 31.429688 10.535156 31.433594 C 12.550781 33.042969 15.058594 33.914062 17.636719 33.910156 L 31.429688 33.910156 C 32.152344 33.914062 32.734375 34.496094 32.738281 35.21875 C 32.738281 35.519531 32.980469 35.765625 33.285156 35.765625 C 33.582031 35.765625 33.832031 35.519531 33.832031 35.21875 C 33.832031 33.894531 32.753906 32.816406 31.429688 32.816406 Z M 11.636719 30.894531 L 13.511719 28.605469 C 13.542969 28.644531 13.574219 28.683594 13.613281 28.722656 C 14.691406 29.855469 16.1875 30.496094 17.753906 30.492188 L 18.558594 30.492188 L 18.558594 32.816406 L 17.636719 32.816406 C 15.484375 32.816406 13.386719 32.144531 11.636719 30.894531 Z M 19.652344 32.816406 L 19.652344 30.492188 L 25.136719 30.492188 C 26.511719 30.496094 27.691406 31.46875 27.957031 32.816406 Z M 19.652344 32.816406 "/>
</g>
</svg>
