<?xml version="1.0" encoding="UTF-8"?>
<svg xmlns="http://www.w3.org/2000/svg" xmlns:xlink="http://www.w3.org/1999/xlink" width="80pt" height="80pt" viewBox="0 0 80 80" version="1.1">
<g id="surface1">
<path style=" stroke:none;fill-rule:nonzero;fill:rgb(100%,56.078431%,0%);fill-opacity:1;" d="M 35.503906 59.890625 C 32.675781 59.890625 29.964844 58.730469 28.011719 56.6875 C 26.054688 54.640625 25.019531 51.882812 25.148438 49.054688 C 25.394531 43.457031 30.230469 39.15625 35.828125 39.15625 L 40.539062 39.15625 C 50.265625 39.15625 58.726562 32.503906 61.023438 23.054688 L 35.273438 23.054688 C 23.214844 23.054688 13.4375 32.832031 13.4375 44.890625 C 13.4375 56.949219 23.214844 66.726562 35.273438 66.726562 L 57.113281 66.726562 C 57.113281 62.949219 54.050781 59.890625 50.273438 59.890625 Z M 35.503906 59.890625 "/>
<path style=" stroke:none;fill-rule:nonzero;fill:rgb(100%,38.823529%,9.803922%);fill-opacity:1;" d="M 20.207031 37.089844 C 17.917969 48.351562 24.679688 53.679688 27.027344 55.476562 L 27.03125 55.476562 C 25.707031 53.601562 25.046875 51.34375 25.148438 49.050781 C 25.394531 43.457031 30.230469 39.152344 35.832031 39.152344 L 40.542969 39.152344 C 50.265625 39.152344 58.726562 32.5 61.023438 23.054688 L 35.273438 23.054688 C 35.273438 23.054688 22.316406 26.734375 20.207031 37.089844 Z M 20.207031 37.089844 "/>
<path style=" stroke:none;fill-rule:nonzero;fill:rgb(100%,38.823529%,9.803922%);fill-opacity:1;" d="M 14 39.964844 L 25.941406 45.609375 C 27.667969 41.679688 31.558594 39.144531 35.847656 39.15625 L 27.734375 24.390625 C 20.824219 26.941406 15.664062 32.792969 14 39.964844 Z M 14 39.964844 "/>
<path style=" stroke:none;fill-rule:nonzero;fill:rgb(100%,38.823529%,9.803922%);fill-opacity:1;" d="M 35.273438 66.726562 L 38.214844 66.726562 L 38.214844 59.890625 L 35.503906 59.890625 C 32.128906 59.890625 28.964844 58.242188 27.027344 55.476562 L 21.699219 61.988281 C 25.554688 65.0625 30.34375 66.734375 35.273438 66.726562 Z M 35.273438 66.726562 "/>
<path style=" stroke:none;fill-rule:nonzero;fill:rgb(100%,95.686275%,95.686275%);fill-opacity:1;" d="M 47.171875 25.71875 C 46.296875 25.71875 45.582031 26.429688 45.582031 27.308594 C 45.582031 28.183594 46.296875 28.898438 47.171875 28.898438 C 48.050781 28.898438 48.761719 28.183594 48.761719 27.308594 C 48.761719 26.429688 48.050781 25.71875 47.171875 25.71875 Z M 47.171875 25.71875 "/>
<path style=" stroke:none;fill-rule:nonzero;fill:rgb(93.72549%,21.960784%,0.392157%);fill-opacity:1;" d="M 35.847656 39.15625 L 28.671875 26.101562 C 25.128906 28.3125 21.277344 31.84375 20.207031 37.089844 C 19.820312 38.933594 19.675781 40.816406 19.78125 42.695312 L 25.941406 45.609375 C 27.667969 41.679688 31.558594 39.144531 35.847656 39.15625 Z M 35.847656 39.15625 "/>
<path style=" stroke:none;fill-rule:nonzero;fill:rgb(38.823529%,0%,0%);fill-opacity:1;" d="M 18.773438 31.679688 C 19.089844 31.679688 19.394531 31.542969 19.601562 31.304688 C 19.703125 31.183594 19.808594 31.066406 19.914062 30.949219 C 20.179688 30.660156 20.273438 30.25 20.15625 29.875 C 20.039062 29.5 19.726562 29.214844 19.34375 29.132812 C 18.957031 29.050781 18.558594 29.183594 18.296875 29.476562 C 18.175781 29.605469 18.0625 29.734375 17.945312 29.867188 C 17.664062 30.191406 17.597656 30.648438 17.777344 31.039062 C 17.953125 31.429688 18.34375 31.679688 18.773438 31.679688 Z M 18.773438 31.679688 "/>
<path style=" stroke:none;fill-rule:nonzero;fill:rgb(38.823529%,0%,0%);fill-opacity:1;" d="M 29.957031 10.660156 L 30.789062 10.660156 C 31.390625 10.660156 31.882812 10.171875 31.882812 9.566406 C 31.882812 8.960938 31.390625 8.472656 30.789062 8.472656 L 29.957031 8.472656 C 29.351562 8.472656 28.863281 8.960938 28.863281 9.566406 C 28.863281 10.171875 29.351562 10.660156 29.957031 10.660156 Z M 29.957031 10.660156 "/>
<path style=" stroke:none;fill-rule:nonzero;fill:rgb(38.823529%,0%,0%);fill-opacity:1;" d="M 48.761719 27.308594 C 48.761719 26.429688 48.050781 25.71875 47.171875 25.71875 C 46.296875 25.71875 45.582031 26.429688 45.582031 27.308594 C 45.582031 28.183594 46.296875 28.898438 47.171875 28.898438 C 48.050781 28.894531 48.761719 28.183594 48.761719 27.308594 Z M 48.761719 27.308594 "/>
<path style=" stroke:none;fill-rule:nonzero;fill:rgb(38.823529%,0%,0%);fill-opacity:1;" d="M 62.859375 65.632812 L 58.121094 65.632812 C 57.574219 61.71875 54.226562 58.804688 50.273438 58.796875 L 35.503906 58.796875 C 32.972656 58.796875 30.550781 57.761719 28.800781 55.929688 C 27.050781 54.097656 26.125 51.632812 26.242188 49.101562 C 26.441406 44.570312 30.164062 40.828125 34.753906 40.316406 L 34.753906 44.191406 C 34.753906 44.792969 35.246094 45.285156 35.847656 45.285156 C 36.453125 45.285156 36.941406 44.792969 36.941406 44.191406 L 36.941406 40.25 L 40.539062 40.25 C 40.9375 40.25 41.332031 40.234375 41.722656 40.214844 L 42.492188 43.835938 C 42.617188 44.425781 43.195312 44.804688 43.789062 44.679688 C 44.378906 44.554688 44.757812 43.972656 44.628906 43.382812 L 43.910156 39.992188 C 45.414062 39.761719 46.886719 39.382812 48.3125 38.851562 L 50.117188 42.78125 C 50.277344 43.144531 50.617188 43.390625 51.011719 43.429688 C 51.40625 43.46875 51.789062 43.292969 52.015625 42.96875 C 52.242188 42.644531 52.277344 42.222656 52.105469 41.867188 L 50.324219 37.988281 C 56.234375 35.089844 60.542969 29.710938 62.085938 23.3125 C 62.164062 22.988281 62.089844 22.640625 61.882812 22.378906 C 61.675781 22.113281 61.359375 21.960938 61.023438 21.960938 L 58.210938 21.960938 C 57.632812 14.359375 51.300781 8.484375 43.679688 8.472656 L 34.53125 8.472656 C 33.925781 8.472656 33.4375 8.960938 33.4375 9.566406 C 33.4375 10.171875 33.925781 10.660156 34.53125 10.660156 L 43.679688 10.660156 C 50.09375 10.667969 55.445312 15.570312 56.015625 21.960938 L 53.15625 21.960938 C 52.597656 17.257812 48.613281 13.710938 43.878906 13.703125 L 24.925781 13.703125 C 24.320312 13.703125 23.832031 14.195312 23.832031 14.796875 C 23.832031 15.402344 24.320312 15.890625 24.925781 15.890625 L 43.878906 15.890625 C 47.40625 15.898438 50.40625 18.472656 50.945312 21.960938 L 35.273438 21.960938 C 30.378906 21.945312 25.609375 23.511719 21.671875 26.425781 C 21.1875 26.785156 21.082031 27.46875 21.441406 27.957031 C 21.800781 28.441406 22.484375 28.546875 22.972656 28.1875 C 24.292969 27.210938 25.722656 26.398438 27.234375 25.757812 L 32.882812 36.03125 C 33.175781 36.5625 33.839844 36.753906 34.367188 36.464844 C 34.898438 36.171875 35.089844 35.507812 34.800781 34.980469 L 29.328125 25.023438 C 31.257812 24.445312 33.261719 24.148438 35.273438 24.148438 L 59.582031 24.148438 C 57.835938 29.65625 53.785156 34.132812 48.480469 36.421875 C 48.457031 36.429688 48.433594 36.4375 48.410156 36.445312 C 48.386719 36.457031 48.359375 36.476562 48.335938 36.488281 C 45.867188 37.53125 43.21875 38.066406 40.539062 38.0625 L 35.828125 38.0625 C 31.503906 38.03125 27.507812 40.367188 25.417969 44.148438 L 18.445312 40.855469 C 17.898438 40.597656 17.246094 40.832031 16.988281 41.375 C 16.730469 41.921875 16.960938 42.574219 17.507812 42.832031 L 24.5625 46.167969 C 24.269531 47.085938 24.101562 48.039062 24.054688 49.003906 C 23.949219 51.25 24.511719 53.476562 25.671875 55.402344 L 21.558594 60.433594 C 14.097656 53.863281 12.351562 42.925781 17.398438 34.359375 C 17.613281 34.023438 17.628906 33.59375 17.4375 33.242188 C 17.242188 32.890625 16.875 32.675781 16.472656 32.675781 C 16.074219 32.675781 15.703125 32.898438 15.515625 33.25 C 9.726562 43.074219 12.042969 55.65625 20.945312 62.777344 C 20.964844 62.796875 20.984375 62.820312 21.007812 62.839844 C 21.03125 62.859375 21.046875 62.859375 21.066406 62.871094 C 25.105469 66.082031 30.117188 67.828125 35.277344 67.824219 L 62.859375 67.824219 C 64.300781 67.828125 65.46875 68.996094 65.472656 70.4375 C 65.472656 71.042969 65.960938 71.53125 66.566406 71.53125 C 67.167969 71.53125 67.660156 71.042969 67.660156 70.4375 C 67.660156 67.785156 65.507812 65.636719 62.859375 65.632812 Z M 23.273438 61.792969 L 27.023438 57.210938 C 27.089844 57.289062 27.152344 57.371094 27.222656 57.445312 C 29.378906 59.714844 32.375 60.996094 35.507812 60.984375 L 37.121094 60.984375 L 37.121094 65.632812 L 35.273438 65.632812 C 30.96875 65.636719 26.773438 64.292969 23.273438 61.792969 Z M 39.308594 65.632812 L 39.308594 60.984375 L 50.273438 60.984375 C 53.023438 60.988281 55.386719 62.9375 55.914062 65.632812 Z M 39.308594 65.632812 "/>
</g>
</svg>
